<svg fill="#5c96de" version="1.1" xmlns="http://www.w3.org/2000/svg" xmlns:xlink="http://www.w3.org/1999/xlink" x="0px" y="0px" viewBox="0 0 1000 1000" enable-background="new 0 0 1000 1000" xml:space="preserve">
<metadata> Svg Vector Icons : http://www.onlinewebfonts.com/icon </metadata>
<g><g transform="translate(0.000000,511.000000) scale(0.100000,-0.100000)"><path d="M4650.6,5003.6c-32.8-4.1-149.7-18.5-256.3-30.8c-414.2-45.1-916.6-182.5-1349.3-369.1C1685.5,4021.4,625.4,2778.7,250.1,1331C114.8,806.1,63.5,53.5,127.1-448.8C315.8-1917,1072.4-3157.6,2274-3963.5c641.8-432.7,1371.8-701.3,2171.5-801.8c276.8-36.9,879.7-30.8,1187.3,10.3c1310.3,170.2,2501.7,863.3,3282.9,1907c510.6,682.8,816.1,1412.8,947.4,2265.8c49.2,326,49.2,1045.8,0,1373.9c-137.4,898.1-500.3,1732.7-1049.9,2409.4c-172.3,211.2-547.5,584.4-760.7,752.5c-654.1,518.8-1484.6,879.7-2335.6,1010.9C5522.1,4995.4,4781.8,5022,4650.6,5003.6z M5282.2,4542.2c406,6.2,1162.7-182.5,1611.7-399.9l192.7-94.3l-14.4-268.6c-6.2-149.7-18.4-360.9-24.6-469.6l-12.3-198.9l-65.6-20.5c-34.8-10.3-118.9-30.8-186.6-43.1c-194.8-39-574.2-151.7-820.2-246.1c-311.7-118.9-321.9-116.9-836.6,139.4c-227.6,112.8-582.4,276.8-787.4,362.9c-207.1,86.1-393.7,172.2-418.3,192.8c-55.4,43.1-84.1,299.4-75.9,652.1l6.1,239.9l118.9,36.9c219.4,65.6,900.2,147.6,1060.1,125.1C5068.9,4544.3,5181.7,4542.2,5282.2,4542.2z M7595.2,3742.5c233.8-162,408.1-309.6,617.2-529c356.8-371.2,615.2-752.6,867.4-1279.5c157.9-330.1,276.8-691,225.6-691c-26.7,0-572.1,186.6-623.4,215.3c-47.2,22.6-94.3,96.4-207.1,319.9c-233.8,465.5-473.7,787.4-848.9,1138.1l-198.9,188.6l-8.2,371.2c-2,205.1,0,371.2,8.2,371.2C7435.2,3847.1,7511.1,3799.9,7595.2,3742.5z M4322.5,2973.5c328.1-127.1,746.4-291.2,933-365c186.6-71.8,362.9-151.7,391.7-178.4c39-36.9,59.5-84.1,77.9-184.6c32.8-196.8,104.6-1060.1,104.6-1279.5c0-168.2-4.1-192.8-45.1-229.7C5733.3,691.3,3982.1-498,3908.3-539c-38.9-18.5-90.2-4.1-348.6,102.5c-166.1,67.7-440.9,178.4-611.1,246.1c-168.1,67.7-352.7,147.6-408,178.4c-162,88.2-178.4,125.1-198.9,426.5c-12.3,145.6-43.1,559.8-73.8,918.6c-28.7,358.8-47.2,699.2-43.1,752.6c8.2,75.9,28.7,121,86.1,190.7c104.6,127.1,455.2,408.1,801.8,637.7c356.8,237.9,514.7,321.9,572.1,305.5C3709.4,3213.5,3996.5,3102.7,4322.5,2973.5z M1720.4,2307.1l248.1-102.5l22.5-352.7c14.4-194.8,34.9-537.2,45.1-762.8c12.3-225.6,30.8-537.2,43.1-691c14.3-153.8,16.4-313.7,10.3-352.7c-12.3-69.7-203-369.1-350.7-555.7c-36.9-47.2-108.7-203-172.2-373.2l-108.7-291.2l-106.6-20.5c-145.6-30.8-486-84.1-529.1-84.1c-65.6,0-176.3,399.9-219.4,803.8C572.1-192.5,576.2,435,611,679c88.2,621.3,274.8,1179.1,555.7,1648.6l96.4,164l104.6-43.1C1425.1,2426,1583,2362.5,1720.4,2307.1z M9006,1089.1c194.8-71.8,362.9-137.4,373.2-147.6c30.8-30.8,80-373.2,92.3-658.2c39-848.9-194.8-1761.4-643.9-2495.5c-82-135.3-108.7-164-149.7-162c-67.7,4.1-676.7,229.6-719.7,268.6c-45.1,41-67.7,184.6-129.2,826.4c-28.7,299.4-65.6,660.3-84.1,801.8c-39,303.5-36.9,307.6,170.2,635.7c67.7,106.6,209.2,340.4,313.7,520.8c324,559.8,328.1,566,377.3,551.6C8630.7,1222.4,8809.1,1158.8,9006,1089.1z M6239.8,391.9C6824.2,176.6,7158.4,49.4,7260.9,2.3l121-53.3l147.6-1049.9c80-578.3,145.6-1064.2,145.6-1084.8c0-49.2-147.6-172.2-533.1-449.1c-186.6-133.3-416.3-299.4-512.6-369.1c-192.8-139.5-393.7-244-471.6-244c-36.9,0-1913.2,799.7-1941.9,826.4c-2,2.1-18.4,340.4-36.9,752.6c-18.4,412.2-41,785.4-51.3,830.5s-20.5,92.3-20.5,104.6c0,28.7,205.1,176.3,471.6,340.4c317.8,196.8,1312.3,777.2,1384.1,807.9C6049.1,451.4,6088,449.3,6239.8,391.9z M1429.2-1550c28.7-26.7,118.9-166.1,198.9-313.7C1855.7-2280,2110-2589.6,2475-2891l100.5-82l-69.7-270.7c-39-149.7-75.9-270.7-82-270.7c-30.8,0-301.4,221.5-483.9,395.8c-244,233.8-463.4,494.2-641.8,764.9c-153.8,231.7-356.8,619.2-377.3,719.7l-14.4,63.6l118.9,24.6c65.6,14.4,129.2,28.7,139.4,30.8c12.3,4.1,63.6,8.2,116.9,8.2C1353.3-1504.9,1390.2-1517.2,1429.2-1550z M4326.6-2727c65.6-28.7,414.2-180.5,775.1-334.3c844.8-362.9,1029.4-451.1,1047.8-492.1c20.5-45.1,36.9-541.3,20.5-604.9c-16.4-63.6-118.9-98.4-451.1-149.7c-336.3-53.3-1236.5-53.3-1427.2,0c-73.8,22.6-211.2,55.4-307.6,75.9c-373.2,80-969.9,324-1267.2,516.7c-104.6,67.7-127.1,92.3-118.9,127.1c6.1,24.6,30.8,151.7,55.4,283l43.1,242l75.9,18.5c41,10.3,151.7,30.8,248.1,43c223.5,32.8,615.2,139.4,885.8,244c116.9,45.1,231.7,82,256.3,82C4187.2-2673.7,4261-2698.3,4326.6-2727z"/></g></g>
</svg>