<svg  fill="#5c96de" version="1.1" xmlns="http://www.w3.org/2000/svg" xmlns:xlink="http://www.w3.org/1999/xlink" x="0px" y="0px" viewBox="0 0 1000 1000" enable-background="new 0 0 1000 1000" xml:space="preserve">
<metadata> Svg Vector Icons : http://www.onlinewebfonts.com/icon </metadata>
<g><g><path d="M683.8,255v490c0,91.9-91.9,183.8-183.8,183.8S316.3,836.9,316.3,745V255v-61.3c0-61.3,61.3-122.5,122.5-122.5s122.5,61.3,122.5,122.5V255v367.5v61.3c0,30.6-30.6,61.3-61.3,61.3s-61.3-30.6-61.3-61.3V255h-61.3v428.8c0,61.3,61.3,122.5,122.5,122.5S622.5,745,622.5,683.8v-61.3V193.8c0-91.9-91.9-183.8-183.8-183.8S255,101.9,255,193.8V255v490c0,122.5,122.5,245,245,245s245-122.5,245-245V255H683.8z"/></g><g></g><g></g><g></g><g></g><g></g><g></g><g></g><g></g><g></g><g></g><g></g><g></g><g></g><g></g><g></g></g>
</svg>