<svg fill="#cfd0d2" version="1.1" xmlns="http://www.w3.org/2000/svg" xmlns:xlink="http://www.w3.org/1999/xlink" x="0px" y="0px" viewBox="0 0 1000 1000" enable-background="new 0 0 1000 1000" xml:space="preserve">
<metadata> Svg Vector Icons : http://www.onlinewebfonts.com/icon </metadata>
<g><g><path d="M795.2,703.2c-37.4,0-71.1,14.5-96.6,37.9L348,536.7c2.7-11.1,4.4-22.7,4.4-34.5c0-11.8-1.7-23.3-4.4-34.4l346.8-202.4c26.3,24.6,61.5,39.8,100.4,39.8c81.4,0,147.6-66.2,147.6-147.6C942.8,76.2,876.6,10,795.2,10S647.6,76.2,647.6,157.6c0,11.8,1.7,23.4,4.4,34.4L305.2,394.4c-26.3-24.6-61.5-39.8-100.4-39.8c-81.4,0-147.6,66.2-147.6,147.6c0,81.4,66.2,147.6,147.6,147.6c38.8,0,74-15.2,100.4-39.8l350.6,204.4c-2.5,10.3-4,21.1-4,32.2c0,79.2,64.2,143.4,143.4,143.4s143.4-64.2,143.4-143.4C938.6,767.4,874.4,703.2,795.2,703.2L795.2,703.2z"/></g></g>
</svg>