<svg version="1.1" xmlns="http://www.w3.org/2000/svg" xmlns:xlink="http://www.w3.org/1999/xlink" x="0px" y="0px" viewBox="0 0 1000 1000" enable-background="new 0 0 1000 1000" xml:space="preserve">
<metadata> Svg Vector Icons : http://www.onlinewebfonts.com/icon</metadata>
<g><g id="e6c6b53d3c8160b22dad35a0f710525a"><path d="M985.9,763.3c-11.3,12.8-41.5,15.6-41.5,15.6h-161c0,0-22.5,5.3-62.3-36.4c-27.4-28.6-55.5-70.8-77.9-88.3c-13.4-10.5-26-5.2-26-5.2s-23.5,1.1-26,26c-4.4,43.6-10.4,67.5-10.4,67.5s-2.9,18.4-10.4,26c-8,8-20.8,10.4-20.8,10.4S327.4,829,154.9,550.3C30.4,349.3,14.7,290.7,14.7,290.7s-10.6-14.2,0-31.2c11.1-17.9,26-15.6,26-15.6h145.4c0,0,16.1,1.7,26,10.4c10.8,9.5,15.6,26,15.6,26s31.9,77.1,67.5,135c49.3,80.1,72.7,72.7,72.7,72.7s42.5-11.8,15.6-192.2c-3.7-24.9-51.9-31.2-51.9-31.2s-0.4-21.5,10.4-31.2c12.4-11,26-10.4,26-10.4s21.6-3.8,98.7-5.2c39-0.7,67.5,0,67.5,0s19-0.6,41.5,15.6c10.9,7.8,10.4,26,10.4,26s-4.6,130.1,0,197.4c2,28.9,15.6,31.2,15.6,31.2s14.6,11.3,72.7-72.7c36.8-53.2,67.5-129.8,67.5-129.8s7.6-21.9,15.6-31.2c7.6-8.9,20.8-10.4,20.8-10.4h187c0,0,11.5-0.4,15.6,10.4c3.7,9.9,0,31.2,0,31.2s-2,23.5-20.8,51.9C915.7,404.5,830.1,514,830.1,514s-6.4,14.9-5.2,26c1.4,12.2,10.4,20.8,10.4,20.8s64.5,58.4,109.1,109.1c24.1,27.4,41.5,62.3,41.5,62.3S995.1,752.9,985.9,763.3z"></path></g></g>
</svg>